<?xml version="1.0" encoding="utf-8"?>
<!-- Generator: Adobe Illustrator 22.0.0, SVG Export Plug-In . SVG Version: 6.00 Build 0)  -->
<svg version="1.1" id="Capa_1" xmlns="http://www.w3.org/2000/svg" xmlns:xlink="http://www.w3.org/1999/xlink" x="0px" y="0px"
	 viewBox="0 0 24 24" style="enable-background:new 0 0 24 24;" xml:space="preserve">
<style type="text/css">
	.st0{fill:#FFFFFF;}
</style>
<path class="st0" d="M14.3,7.7l3.8-3.8l-0.5-0.5c-0.6-0.6-1.6-0.6-2.2,0l-1.6,1.6c-0.3,0.3-0.5,0.7-0.5,1.1s0.2,0.8,0.5,1.1
	L14.3,7.7z"/>
<path class="st0" d="M7.3,13.8c-0.6-0.6-1.6-0.6-2.2,0l-1.6,1.6C3.2,15.7,3,16.1,3,16.5c0,0.4,0.2,0.8,0.5,1.1l0.5,0.4l3.8-3.8
	L7.3,13.8z"/>
<path class="st0" d="M19.5,5.3l-0.4-0.4l-3.8,3.8L16,9.4c0.1,0.1,0.2,0.2,0.2,0.4c0,0.1-0.1,0.3-0.2,0.4L10.2,16
	c-0.2,0.2-0.5,0.2-0.7,0l-0.7-0.7l-3.8,3.8l0.4,0.4c0.3,0.3,1.3,1.1,3.2,1.1c1.7,0,4.4-0.7,7.9-4.2C23.4,9.4,19.7,5.5,19.5,5.3z"/>
</svg>
